# xmcd
#
# Track frame offsets:
# 150
# 12737
# 28567
# 52345
# 61790
# 76926
# 93839
# 111458
# 127450
# 148779
# 166268
#
# Disc length: 2398 seconds
#
# Revision: 0
# Processed by: cddbd v1.4PL0 Copyright (c) Steve Scherf et al.
# Submitted via: Audion 3.0.2 (http://www.panic.com/audion/)
#
DISCID=9d095c0b
DTITLE=jhuh - hb
DYEAR=1900
DGENRE=
TTITLE0=a
TTITLE1=a
TTITLE2=jb
TTITLE3=ds
TTITLE4=y
TTITLE5=yu
TTITLE6=f
TTITLE7=y
TTITLE8=u
TTITLE9=u
TTITLE10=u
EXTD=
EXTT0=
EXTT1=
EXTT2=
EXTT3=
EXTT4=
EXTT5=
EXTT6=
EXTT7=
EXTT8=
EXTT9=
EXTT10=
PLAYORDER=
